<svg width="1200" height="547" viewBox="0 0 1200 547" fill="none" xmlns="http://www.w3.org/2000/svg">
<path fill-rule="evenodd" clip-rule="evenodd" d="M0 547L40 505C80 463 160 379 240 361C320 343 400 391 480 391C560 391 640 343 720 367C800 391 880 487 960 517C1040 547 1120 511 1160 493L1200 475V259H1160C1120 259 1040 259 960 259C880 259 800 259 720 259C640 259 560 259 480 259C400 259 320 259 240 259C160 259 80 259 40 259H0V547Z" fill="#46204C"/>
<rect width="1200" height="259" fill="#46204C"/>
<path d="M326.793 210.75L298.293 124.05C293.993 122.45 291.193 120.75 289.893 118.95L291.393 106.5H326.493L327.993 118.95C326.593 120.85 324.043 122.45 320.343 123.75L333.093 168.15C335.193 175.05 336.493 181.4 336.993 187.2L337.143 189.75H339.243C339.343 183.65 340.593 176.55 342.993 168.45L356.343 123.9C352.543 122.6 349.893 120.95 348.393 118.95L349.893 106.5H384.093L385.593 118.95C383.793 121.15 380.443 123.05 375.543 124.65L347.343 210.75H326.793ZM384.83 146.1C384.83 144.6 384.88 143 384.98 141.3C394.28 136.3 404.28 133.8 414.98 133.8C425.68 133.8 433.33 135.85 437.93 139.95C442.63 143.95 444.98 150.65 444.98 160.05V192C448.48 192.7 451.23 193.55 453.23 194.55V207.6C448.13 210 440.83 211.2 431.33 211.2C430.33 208.6 429.48 205.45 428.78 201.75C424.48 208.05 416.68 211.2 405.38 211.2C398.68 211.2 392.93 209.25 388.13 205.35C383.43 201.45 381.08 196.15 381.08 189.45C381.08 182.75 383.28 177.5 387.68 173.7C392.18 169.8 398.83 167.85 407.63 167.85H423.98V160.65C423.98 152.85 419.83 148.95 411.53 148.95C408.43 148.95 405.88 149.25 403.88 149.85C403.68 154.05 403.08 157.3 402.08 159.6H387.38C385.68 156.1 384.83 151.6 384.83 146.1ZM411.83 195.9C416.93 195.9 420.98 194.4 423.98 191.4V179.1H413.48C406.28 179.1 402.68 181.85 402.68 187.35C402.68 189.85 403.43 191.9 404.93 193.5C406.53 195.1 408.83 195.9 411.83 195.9ZM485.888 116.1V135H507.338V147.6H485.888V185.55C485.888 188.75 486.338 191.1 487.238 192.6C488.138 194 490.288 194.7 493.688 194.7C497.088 194.7 500.738 193.95 504.638 192.45L509.138 204.15C501.438 208.05 493.538 210 485.438 210C477.438 210 471.988 208.3 469.088 204.9C466.288 201.4 464.888 196.35 464.888 189.75V147.6H458.138L456.488 138.45C458.088 136.55 461.388 134.65 466.388 132.75C467.588 124.55 470.438 119 474.938 116.1H485.888ZM544.398 147.3C537.798 147.3 534.498 149.25 534.498 153.15C534.498 156.85 537.948 159.6 544.848 161.4L556.698 164.55C568.898 167.75 574.998 174.8 574.998 185.7C574.998 193.2 572.348 199.35 567.048 204.15C561.848 208.85 553.498 211.2 541.998 211.2C530.598 211.2 521.698 209.6 515.298 206.4C515.198 205.3 515.148 204.2 515.148 203.1C515.148 197.6 516.248 192.65 518.448 188.25H530.898C532.198 190.65 533.048 193.15 533.448 195.75C535.448 196.35 538.298 196.65 541.998 196.65C550.798 196.65 555.198 194.15 555.198 189.15C555.198 187.55 554.598 186.25 553.398 185.25C552.198 184.15 549.848 183.1 546.348 182.1L534.498 178.65C528.398 176.95 523.648 174.45 520.248 171.15C516.848 167.75 515.148 162.8 515.148 156.3C515.148 149.7 517.798 144.3 523.098 140.1C528.398 135.9 535.948 133.8 545.748 133.8C555.648 133.8 563.998 135.25 570.798 138.15C570.898 139.15 570.948 140.15 570.948 141.15C570.948 146.35 569.848 151.15 567.648 155.55H555.348C554.048 153.25 553.198 150.85 552.798 148.35C549.998 147.65 547.198 147.3 544.398 147.3ZM585.074 146.1C585.074 144.6 585.124 143 585.224 141.3C594.524 136.3 604.524 133.8 615.224 133.8C625.924 133.8 633.574 135.85 638.174 139.95C642.874 143.95 645.224 150.65 645.224 160.05V192C648.724 192.7 651.474 193.55 653.474 194.55V207.6C648.374 210 641.074 211.2 631.574 211.2C630.574 208.6 629.724 205.45 629.024 201.75C624.724 208.05 616.924 211.2 605.624 211.2C598.924 211.2 593.174 209.25 588.374 205.35C583.674 201.45 581.324 196.15 581.324 189.45C581.324 182.75 583.524 177.5 587.924 173.7C592.424 169.8 599.074 167.85 607.874 167.85H624.224V160.65C624.224 152.85 620.074 148.95 611.774 148.95C608.674 148.95 606.124 149.25 604.124 149.85C603.924 154.05 603.324 157.3 602.324 159.6H587.624C585.924 156.1 585.074 151.6 585.074 146.1ZM612.074 195.9C617.174 195.9 621.224 194.4 624.224 191.4V179.1H613.724C606.524 179.1 602.924 181.85 602.924 187.35C602.924 189.85 603.674 191.9 605.174 193.5C606.774 195.1 609.074 195.9 612.074 195.9ZM699.482 210H661.232L659.732 197.55C661.032 195.85 663.782 194.2 667.982 192.6V124.05C663.882 122.55 661.132 120.85 659.732 118.95L661.232 106.5H694.682C710.782 106.5 723.532 111 732.932 120C742.432 129 747.182 142.25 747.182 159.75C747.182 177.15 742.882 189.9 734.282 198C725.782 206 714.182 210 699.482 210ZM689.582 193.65H700.382C707.882 193.65 713.782 191.4 718.082 186.9C722.482 182.3 724.682 173.45 724.682 160.35C724.682 135.35 715.232 122.85 696.332 122.85H689.582V193.65ZM791.218 211.2C779.218 211.2 770.168 208 764.068 201.6C758.068 195.2 755.068 185.9 755.068 173.7C755.068 166.3 756.118 159.95 758.218 154.65C760.318 149.25 763.168 145.1 766.768 142.2C773.768 136.6 781.918 133.8 791.218 133.8C800.518 133.8 807.618 136.2 812.518 141C817.518 145.7 820.018 154.2 820.018 166.5C820.018 173.7 816.468 177.3 809.368 177.3H776.818C777.218 183.6 778.818 188.05 781.618 190.65C784.518 193.25 789.068 194.55 795.268 194.55C798.668 194.55 801.918 194.15 805.018 193.35C808.118 192.55 810.368 191.75 811.768 190.95L813.868 189.75L818.368 201.75C817.768 202.45 816.868 203.35 815.668 204.45C814.568 205.45 811.668 206.85 806.968 208.65C802.368 210.35 797.118 211.2 791.218 211.2ZM800.668 163.95C800.868 162.55 800.968 160.85 800.968 158.85C800.968 156.85 800.168 154.75 798.568 152.55C796.968 150.25 794.168 149.1 790.168 149.1C786.268 149.1 783.268 150.3 781.168 152.7C779.068 155.1 777.668 159.15 776.968 164.85L800.668 163.95ZM874.417 210.9H857.917L833.317 152.4C828.317 150.8 824.967 148.85 823.267 146.55L824.767 135H859.267L860.767 146.55C859.467 148.15 857.317 149.6 854.317 150.9L862.417 173.55C864.217 178.25 865.517 182.9 866.317 187.5L866.617 189.6H868.717C869.517 184.6 870.917 179.35 872.917 173.85L880.867 151.65C877.167 150.25 874.567 148.55 873.067 146.55L874.567 135H907.567L909.067 146.55C907.267 148.85 903.967 150.8 899.167 152.4L874.417 210.9Z" fill="white"/>
</svg>
