<svg width="1200" height="515" viewBox="0 0 1200 515" fill="none" xmlns="http://www.w3.org/2000/svg">
<path fill-rule="evenodd" clip-rule="evenodd" d="M0 515L40 473C80 431 160 347 240 329C320 311 400 359 480 359C560 359 640 311 720 335C800 359 880 455 960 485C1040 515 1120 479 1160 461L1200 443V227H1160C1120 227 1040 227 960 227C880 227 800 227 720 227C640 227 560 227 480 227C400 227 320 227 240 227C160 227 80 227 40 227H0V515Z" fill="#46204C"/>
<rect width="1200" height="259" fill="#46204C"/>
<path d="M326.793 178.75L298.293 92.05C293.993 90.45 291.193 88.75 289.893 86.95L291.393 74.5H326.493L327.993 86.95C326.593 88.85 324.043 90.45 320.343 91.75L333.093 136.15C335.193 143.05 336.493 149.4 336.993 155.2L337.143 157.75H339.243C339.343 151.65 340.593 144.55 342.993 136.45L356.343 91.9C352.543 90.6 349.893 88.95 348.393 86.95L349.893 74.5H384.093L385.593 86.95C383.793 89.15 380.443 91.05 375.543 92.65L347.343 178.75H326.793ZM384.83 114.1C384.83 112.6 384.88 111 384.98 109.3C394.28 104.3 404.28 101.8 414.98 101.8C425.68 101.8 433.33 103.85 437.93 107.95C442.63 111.95 444.98 118.65 444.98 128.05V160C448.48 160.7 451.23 161.55 453.23 162.55V175.6C448.13 178 440.83 179.2 431.33 179.2C430.33 176.6 429.48 173.45 428.78 169.75C424.48 176.05 416.68 179.2 405.38 179.2C398.68 179.2 392.93 177.25 388.13 173.35C383.43 169.45 381.08 164.15 381.08 157.45C381.08 150.75 383.28 145.5 387.68 141.7C392.18 137.8 398.83 135.85 407.63 135.85H423.98V128.65C423.98 120.85 419.83 116.95 411.53 116.95C408.43 116.95 405.88 117.25 403.88 117.85C403.68 122.05 403.08 125.3 402.08 127.6H387.38C385.68 124.1 384.83 119.6 384.83 114.1ZM411.83 163.9C416.93 163.9 420.98 162.4 423.98 159.4V147.1H413.48C406.28 147.1 402.68 149.85 402.68 155.35C402.68 157.85 403.43 159.9 404.93 161.5C406.53 163.1 408.83 163.9 411.83 163.9ZM485.888 84.1V103H507.338V115.6H485.888V153.55C485.888 156.75 486.338 159.1 487.238 160.6C488.138 162 490.288 162.7 493.688 162.7C497.088 162.7 500.738 161.95 504.638 160.45L509.138 172.15C501.438 176.05 493.538 178 485.438 178C477.438 178 471.988 176.3 469.088 172.9C466.288 169.4 464.888 164.35 464.888 157.75V115.6H458.138L456.488 106.45C458.088 104.55 461.388 102.65 466.388 100.75C467.588 92.55 470.438 87 474.938 84.1H485.888ZM544.398 115.3C537.798 115.3 534.498 117.25 534.498 121.15C534.498 124.85 537.948 127.6 544.848 129.4L556.698 132.55C568.898 135.75 574.998 142.8 574.998 153.7C574.998 161.2 572.348 167.35 567.048 172.15C561.848 176.85 553.498 179.2 541.998 179.2C530.598 179.2 521.698 177.6 515.298 174.4C515.198 173.3 515.148 172.2 515.148 171.1C515.148 165.6 516.248 160.65 518.448 156.25H530.898C532.198 158.65 533.048 161.15 533.448 163.75C535.448 164.35 538.298 164.65 541.998 164.65C550.798 164.65 555.198 162.15 555.198 157.15C555.198 155.55 554.598 154.25 553.398 153.25C552.198 152.15 549.848 151.1 546.348 150.1L534.498 146.65C528.398 144.95 523.648 142.45 520.248 139.15C516.848 135.75 515.148 130.8 515.148 124.3C515.148 117.7 517.798 112.3 523.098 108.1C528.398 103.9 535.948 101.8 545.748 101.8C555.648 101.8 563.998 103.25 570.798 106.15C570.898 107.15 570.948 108.15 570.948 109.15C570.948 114.35 569.848 119.15 567.648 123.55H555.348C554.048 121.25 553.198 118.85 552.798 116.35C549.998 115.65 547.198 115.3 544.398 115.3ZM585.074 114.1C585.074 112.6 585.124 111 585.224 109.3C594.524 104.3 604.524 101.8 615.224 101.8C625.924 101.8 633.574 103.85 638.174 107.95C642.874 111.95 645.224 118.65 645.224 128.05V160C648.724 160.7 651.474 161.55 653.474 162.55V175.6C648.374 178 641.074 179.2 631.574 179.2C630.574 176.6 629.724 173.45 629.024 169.75C624.724 176.05 616.924 179.2 605.624 179.2C598.924 179.2 593.174 177.25 588.374 173.35C583.674 169.45 581.324 164.15 581.324 157.45C581.324 150.75 583.524 145.5 587.924 141.7C592.424 137.8 599.074 135.85 607.874 135.85H624.224V128.65C624.224 120.85 620.074 116.95 611.774 116.95C608.674 116.95 606.124 117.25 604.124 117.85C603.924 122.05 603.324 125.3 602.324 127.6H587.624C585.924 124.1 585.074 119.6 585.074 114.1ZM612.074 163.9C617.174 163.9 621.224 162.4 624.224 159.4V147.1H613.724C606.524 147.1 602.924 149.85 602.924 155.35C602.924 157.85 603.674 159.9 605.174 161.5C606.774 163.1 609.074 163.9 612.074 163.9ZM699.482 178H661.232L659.732 165.55C661.032 163.85 663.782 162.2 667.982 160.6V92.05C663.882 90.55 661.132 88.85 659.732 86.95L661.232 74.5H694.682C710.782 74.5 723.532 79 732.932 88C742.432 97 747.182 110.25 747.182 127.75C747.182 145.15 742.882 157.9 734.282 166C725.782 174 714.182 178 699.482 178ZM689.582 161.65H700.382C707.882 161.65 713.782 159.4 718.082 154.9C722.482 150.3 724.682 141.45 724.682 128.35C724.682 103.35 715.232 90.85 696.332 90.85H689.582V161.65ZM791.218 179.2C779.218 179.2 770.168 176 764.068 169.6C758.068 163.2 755.068 153.9 755.068 141.7C755.068 134.3 756.118 127.95 758.218 122.65C760.318 117.25 763.168 113.1 766.768 110.2C773.768 104.6 781.918 101.8 791.218 101.8C800.518 101.8 807.618 104.2 812.518 109C817.518 113.7 820.018 122.2 820.018 134.5C820.018 141.7 816.468 145.3 809.368 145.3H776.818C777.218 151.6 778.818 156.05 781.618 158.65C784.518 161.25 789.068 162.55 795.268 162.55C798.668 162.55 801.918 162.15 805.018 161.35C808.118 160.55 810.368 159.75 811.768 158.95L813.868 157.75L818.368 169.75C817.768 170.45 816.868 171.35 815.668 172.45C814.568 173.45 811.668 174.85 806.968 176.65C802.368 178.35 797.118 179.2 791.218 179.2ZM800.668 131.95C800.868 130.55 800.968 128.85 800.968 126.85C800.968 124.85 800.168 122.75 798.568 120.55C796.968 118.25 794.168 117.1 790.168 117.1C786.268 117.1 783.268 118.3 781.168 120.7C779.068 123.1 777.668 127.15 776.968 132.85L800.668 131.95ZM874.417 178.9H857.917L833.317 120.4C828.317 118.8 824.967 116.85 823.267 114.55L824.767 103H859.267L860.767 114.55C859.467 116.15 857.317 117.6 854.317 118.9L862.417 141.55C864.217 146.25 865.517 150.9 866.317 155.5L866.617 157.6H868.717C869.517 152.6 870.917 147.35 872.917 141.85L880.867 119.65C877.167 118.25 874.567 116.55 873.067 114.55L874.567 103H907.567L909.067 114.55C907.267 116.85 903.967 118.8 899.167 120.4L874.417 178.9Z" fill="white"/>
</svg>
